<?xml version="1.0" encoding="UTF-8" standalone="no"?>
<!DOCTYPE svg PUBLIC "-//W3C//DTD SVG 1.1//EN" "http://www.w3.org/Graphics/SVG/1.1/DTD/svg11.dtd">
<!-- Created with Vectornator (http://vectornator.io/) -->
<svg height="100%" stroke-miterlimit="10" style="fill-rule:nonzero;clip-rule:evenodd;stroke-linecap:round;stroke-linejoin:round;" version="1.1" viewBox="0 0 300 300" width="100%" xml:space="preserve" xmlns="http://www.w3.org/2000/svg" xmlns:vectornator="http://vectornator.io" xmlns:xlink="http://www.w3.org/1999/xlink">
<defs>
<filter color-interpolation-filters="sRGB" filterUnits="userSpaceOnUse" height="118.51" id="Filter" width="126.682" x="88.1096" y="16.1818">
<feComponentTransfer in="SourceGraphic" result="Alpha">
<feFuncA slope="0.333153" type="linear"/>
</feComponentTransfer>
<feDropShadow dx="-3.67321e-05" dy="10" flood-color="#000000" flood-opacity="0.333" in="Alpha" result="Shadow" stdDeviation="6"/>
<feGaussianBlur in="Shadow" result="Blur" stdDeviation="4.82942"/>
</filter>
<filter color-interpolation-filters="sRGB" filterUnits="userSpaceOnUse" height="221.903" id="Filter_2" width="163.395" x="69.8674" y="77.2352">
<feComponentTransfer in="SourceGraphic" result="Alpha">
<feFuncA slope="0.333153" type="linear"/>
</feComponentTransfer>
<feDropShadow dx="-3.67321e-05" dy="10" flood-color="#000000" flood-opacity="0.333" in="Alpha" result="Shadow" stdDeviation="6"/>
<feGaussianBlur in="Shadow" result="Blur" stdDeviation="4.82942"/>
</filter>
</defs>
<g id="Untitled" vectornator:layerName="Untitled">
<g opacity="1">
<path d="M136.4 40.6C129.5 44.2 124.5 48 126.7 48C127.4 48 128.2 47.6 128.5 47C128.8 46.5 131.9 44.4 135.3 42.4C140.5 39.3 142.5 38.7 147.7 38.6C155.7 38.4 156.6 37.5 149.1 37.2C144.2 37 142.4 37.5 136.4 40.6Z" fill="#000000" fill-rule="nonzero" opacity="1" stroke="none"/>
<path d="M141.3 41.5C139 42.7 137.3 44 137.5 44.2C137.7 44.4 136.9 45.2 135.7 45.9C133.7 47.2 133.6 47.2 134.9 45.7C137.1 43 134.9 43.7 131.8 46.7C130.3 48.1 128 49.4 126.8 49.5C125.5 49.6 124.5 50.3 124.5 51.1C124.5 51.9 124.2 52.7 123.9 53C122.2 54.3 117 64.4 116.9 66.3C116.7 74.4 118 81.5 120.6 85.1C124.1 90.3 124.9 89.4 121.5 84.1C120 81.9 119 79.6 119.2 78.9C119.6 77.7 125 87.8 125 89.8C125 90.4 126.5 92 128.3 93.4C132.1 96.3 137.5 98.6 136.4 96.9C136 96.1 136.5 96 138.1 96.5C141.2 97.4 141.2 97.4 143.3 96.5C144.3 96.1 145.6 96.2 146.1 96.7C146.7 97.3 149 97.4 152.3 96.7C155.2 96.2 158.4 95.7 159.5 95.6C160.6 95.5 163.2 94.4 165.3 93.1C169.1 90.7 170.2 89.3 167.4 90.4C166 91 165.9 90.8 167 89.5C167.9 88.5 168.6 88.3 169 89C169.8 90.2 173.1 86.8 175.3 82.5C176.1 80.8 177.1 76.6 177.5 73C177.9 69.4 178.3 66.3 178.5 66.1C178.7 66 179.2 67.4 179.5 69.3C180.7 75.4 177.6 83.7 172.1 89.1C169.6 91.6 166.4 94 165.2 94.4C163.2 95.1 163 97 165 97C167.2 97 177.1 86.4 179.3 81.7C181.5 77.1 181.7 75.7 181.1 69.2C180.7 65 179.9 61.5 179.1 61.1C178.4 60.6 177.9 59.9 178 59.4C178.2 57.9 174.7 51 173.8 51C173.3 51 173.2 50.5 173.6 49.8C174.1 49.1 173.9 49 173 49.5C172 50.1 171.8 49.9 172.3 48.6C173.4 45.8 166.7 40.2 161.5 39.4C159.1 39.1 156.4 39 155.4 39.3C154.3 39.6 155.2 39.8 157.3 39.9C161.9 40 166.7 42 169.8 45C172.5 47.5 171.9 49.1 169.2 46.7C165.3 43.1 147 39.4 147 42.1C147 42.5 145.7 43 144 43.2C140.2 43.8 140.2 43.4 144.3 41C148.7 38.3 146.5 38.6 141.3 41.5ZM143.5 46C143.2 46.5 142.2 47 141.4 47C140.6 47 138.6 47.7 137 48.5C135.3 49.4 134 49.7 134 49.3C134 48.4 140.8 45.1 142.8 45.1C143.5 45 143.8 45.4 143.5 46ZM157.5 46.2C159.7 46.8 161.8 47.3 162.3 47.2C162.7 47.1 163 47.5 163 48.1C163 48.8 161.8 49 159.8 48.6C158 48.3 153.9 47.7 150.8 47.4C147.6 47 145.3 46.3 145.6 45.9C146.3 44.6 152.8 44.8 157.5 46.2ZM165.5 47C166.7 48.4 167.6 48.7 168 47.9C168.5 47.3 169.9 48.3 171.8 50.6C173.5 52.7 174.7 54.7 174.5 55.1C174.2 55.5 174.7 57.1 175.5 58.6C176.3 60.2 177 62.2 176.9 63C176.9 63.8 176.4 63.1 175.8 61.5C175.2 59.8 173.9 57.5 172.8 56.3C171.7 55.1 171.1 53.7 171.4 53.2C171.7 52.7 171.2 51.6 170.2 50.9C168.7 49.6 168.6 49.7 169.9 51.2C172.3 54.3 170.4 53.1 166.2 49C164 46.8 162.6 45 163 45C163.4 45 164.5 45.9 165.5 47ZM156 49.1C158.9 49.7 161.8 50.3 162.6 50.4C166.9 51 174 59.3 174 63.7C174 65 174.4 66 174.9 66C175.4 66 176.1 66.7 176.4 67.6C176.7 68.4 176.6 68.8 176 68.5C175.4 68.2 175 68.9 175 70.2C175 71.5 174.1 74.5 173 76.9C171.9 79.3 171.2 81.5 171.4 81.7C171.7 82 172.8 80.2 173.9 77.8C175 75.5 175.9 74 176 74.7C176 76.5 172.8 83 171.9 83C171.4 83 170.6 82.2 170 81.2C169.1 79.8 169 79.9 169.6 81.9C170 83.5 169.9 84 169.1 83.6C168.5 83.2 168.2 83.4 168.6 84.3C169.2 86 161.1 93.2 157.9 93.7C148.7 95.3 145.1 95.1 140.1 93C132 89.5 125.5 79.7 126.7 72.6C127 70.8 126.8 69 126.3 68.7C125.7 68.3 125.5 69.1 125.8 70.5C126 72 125.8 73 125.1 73C123.4 73 123.8 65.5 125.7 61.5C126.6 59.6 127.7 58 128.2 58C128.6 58 129 57.3 129 56.6C129 54.7 134.9 50.2 137.8 49.7C139 49.5 140.3 49.1 140.6 48.7C141.7 47.6 150.3 47.9 156 49.1ZM123.4 62.5C121.5 67.1 122.5 72.9 126.2 79.9C130.6 88.1 132.1 89.9 136.3 92.1C138.5 93.2 140 94.4 139.7 94.6C138.8 95.6 131.5 91.2 128.3 87.8C126.4 85.8 125 83.2 124.8 81.2C124.6 79.4 123.8 77.5 123 77C122.3 76.6 121.6 74.6 121.6 72.7C121.5 70.8 121.1 69.4 120.7 69.7C120.3 69.9 120.2 68.9 120.5 67.3C121 65 120.9 64.8 120 66.3C119.3 67.3 119.1 69.4 119.5 71.3C119.9 73.1 119.9 74.2 119.5 73.8C118.4 72.7 118 65 119.1 65C119.6 65 120 64 120.1 62.7C120.1 60.6 120.2 60.6 121 62.5C121.8 64.4 121.9 64.4 121.9 62.3C122 61.1 122.6 59.9 123.3 59.7C123.9 59.4 124.6 59.1 124.7 59.1C124.8 59 124.2 60.6 123.4 62.5Z" fill="#000000" fill-rule="nonzero" opacity="1" stroke="none"/>
<path d="M132.7 59.7C129.2 65.2 128 67.7 128 69.2C128 69.9 129.2 68.2 130.6 65.5C132.1 62.7 133.9 59.7 134.8 58.7C135.6 57.8 136.1 56.7 135.7 56.4C135.4 56.1 134.1 57.5 132.7 59.7Z" fill="#000000" fill-rule="nonzero" opacity="1" stroke="none"/>
<path d="M161 85.6C158.5 86.9 153.8 88.9 150.5 90C145.5 91.7 145.2 91.9 148.5 91.4C153.2 90.8 163.5 86.4 165.1 84.4C166.6 82.6 166.4 82.7 161 85.6Z" fill="#000000" fill-rule="nonzero" opacity="1" stroke="none"/>
<path d="M157.5 97.1C156.4 97.5 154.2 98.2 152.5 98.6L149.5 99.3L152.5 100L155.5 100.8L152.7 100.9C148.4 101.1 150.3 102.6 155.1 102.9C157.4 103 159.8 103.7 160.4 104.4C161 105.1 163.3 106.2 165.6 106.8C169.8 108 177.9 114.7 179.9 118.8C180.6 120 181.6 120.8 182.2 120.4C182.9 119.9 183 120.2 182.6 120.9C182.1 121.6 182.5 122.9 183.4 123.8C187.2 128.1 190.1 136.8 190.3 144.9C190.4 149.8 190.1 153 189.5 153C188.9 153 189 153.4 189.6 153.8C191 154.6 192.1 168.8 190.9 169.6C190.5 169.8 189.9 167 189.7 163.3L189.4 156.5L189.2 163.7C189.1 168.3 189.4 171 190 171C191.4 171 190.4 177.3 188.4 181.7C187.3 184 186.5 184.8 185.2 184.4C183.9 184 183.8 184.1 184.8 184.8C186.7 186.1 180.3 189 175.6 189C173.6 189 172 189.5 172 190.1C172 190.7 172.7 191 173.5 190.7C174.3 190.3 175.2 190.5 175.5 191C175.9 191.6 175.6 192.1 175.1 192.1C174.5 192.2 173.6 192.4 173 192.5C172.5 192.6 171.7 192.8 171.3 192.9C170.8 193 171.2 193.6 172.1 194.3C173.7 195.5 174.3 203.3 172.7 202.3C172.2 202 172.1 201.2 172.4 200.4C172.7 199.7 172.5 198.8 172 198.5C171.4 198.1 171 199.2 171 200.9C171 202.5 171.4 204.1 171.9 204.5C173 205.1 173.3 231.6 172.4 236.7C172 238.6 171.3 239.7 170.7 239.3C170.1 239 170 239.2 170.4 239.9C170.8 240.5 170.7 241.6 170.2 242.3C169.6 243 169.3 244.7 169.5 246.3C169.7 247.8 169.5 248.8 169.2 248.6C168.8 248.4 167.7 249.3 166.7 250.6C163.9 254.3 167 253.6 170 249.9C171.4 248.2 173.1 246.2 173.8 245.5C174.4 244.7 175 243.2 175 242C175 240.8 175.4 239.1 176 238.1C176.5 237.1 177.2 233.3 177.6 229.6C178.2 223.7 178.1 223 176.6 223.6C174.7 224.3 174.4 222 176 218.9C176.8 217.6 176.7 217 176 217C175.4 217 175.2 216.5 175.5 216C175.8 215.4 175.5 215 174.8 215C173.7 215 173.7 214.8 174.8 214.1C175.7 213.6 175.9 212.4 175.4 210.5C174.9 208.7 175.2 207.5 176.1 206.9C176.9 206.4 177.1 206 176.5 206C175.4 206 175.3 200.4 176.3 199.3C176.7 199 177 197.4 177 195.8C177 194 177.5 193 178.5 193C179.3 193 180 192.6 180 192.2C180 191.8 181 191.4 182.2 191.3C184.9 191.1 191.6 185.6 191.2 183.9C191 183 191.4 183.1 192.6 184.1C193.9 185.1 194.2 185.1 193.6 184.2C193.2 183.5 193.6 181.8 194.6 180.2C196.1 177.9 196.4 174.7 196.7 159.2C196.9 148.5 196.6 141.1 196.1 141.4C195.6 141.7 195 141.3 194.7 140.6C194.4 139.8 194.6 139 195.2 138.8C196.6 138.3 193.8 127.6 190.8 121.6C188.1 116.4 181.1 109 174.3 104.3C169.7 101.2 168 100.5 163.7 100.5C160.6 100.5 158.5 100 158.3 99.2C158 98.6 158.3 98 159 98C159.6 98 159.8 98.4 159.5 99C158.7 100.3 159.6 100.3 162.1 98.9C163.2 98.4 163.8 97.4 163.4 96.8C163 96.1 162.5 96.2 161.9 97.1C161.3 98.1 160.8 98.2 160.3 97.4C159.8 96.7 158.7 96.6 157.5 97.1ZM169.2 102.6C171.657 103.893 176.998 108.028 181.088 111.601C183.324 113.554 185.187 115.34 186 116.4C188.6 119.7 191.7 126.1 193.4 131.4C195.4 137.5 195.4 137.7 193.5 137.7C192.7 137.7 192.3 137.2 192.7 136.7C193.5 135.4 188 122.3 185.4 119.5C184.1 118.1 183.3 117 183.5 117C183.8 117 183.2 116.2 182.1 115.2C181.1 114.3 178.3 111.6 175.9 109.3C173.5 107 170.4 104.9 169 104.6C165.3 104 163 102.9 163 101.9C163 100.5 165.8 100.8 169.2 102.6ZM195.1 153C195.5 158.1 195.4 165 194.8 168.8C194.3 172.5 193.8 176.3 193.7 177.2C193.6 179 192.8 179.5 191.7 178.4C191.4 178 191.7 176.6 192.4 175.1C193.5 172.9 193.9 153.5 193 149.5C192.9 148.9 192.8 147.2 192.9 145.6C193.1 140 194.3 144.1 195.1 153ZM174.4 239.7C174.1 241.8 173.1 244.2 172.3 245C170.9 246.3 170.8 246.3 171.3 245C171.6 244.2 172.4 241.8 173.1 239.7C173.8 237.7 174.5 236 174.7 236C174.9 236 174.8 237.7 174.4 239.7Z" fill="#000000" fill-rule="nonzero" opacity="1" stroke="none"/>
<path d="M143 98.6C143 99.6 142.4 99.7 140.5 99C138.9 98.4 138 98.4 138 99C138 99.6 138.8 100 139.8 100.1C141.8 100.1 131.5 105 129.3 105C128.5 105 128.2 105.5 128.6 106.2C129 106.9 128.9 107 128.2 106.6C126 105.3 114.9 116 110.5 123.8C108.9 126.7 106.9 129.9 106.2 130.8C105.1 132.3 105.1 132.3 105.7 130.5C106 129.4 106.6 128 107 127.5C107.4 126.9 108.5 124.4 109.5 121.8C111.3 116.9 121.1 106.5 122.5 107.8C123 108.2 123 108 122.7 107.4C122.3 106.8 124.4 105.4 127.8 104.1C130.9 102.9 134.4 101.5 135.5 101C137.5 100.1 137.5 100.1 135.5 100.1C131.7 100 121.1 105.5 116.5 109.9C109.1 116.9 104.4 126.1 103.8 135C103.7 136.9 103 139 102.4 139.7C100.5 141.6 98.9 161.4 100.1 168C100.6 170.8 100.8 170.2 100.9 165C101.1 155.7 101.9 146.8 102.5 146.2C103.5 145.2 103 163.2 101.8 170.2C100.9 175.7 100.9 177.7 101.9 179.2C102.6 180.4 102.7 180.9 102.1 180.5C101.5 180.2 101.9 181.5 103.1 183.4C104.3 185.4 105.6 187.1 106.1 187.1C106.6 187.2 107.4 187.3 107.8 187.4C108.3 187.4 109.4 188.2 110.3 189.2C111.2 190.1 113.5 191.8 115.4 192.9C118.1 194.6 118.9 195.9 119.5 199.3C120.6 206.6 121.2 239.3 120.2 238.6C119.6 238.2 119.5 239.4 120 241.7C120.5 243.7 120.7 245.8 120.4 246.2C118.9 248.5 127.4 256 133 257.4C134.7 257.8 134.4 257.4 132 256.2C128.6 254.5 128.5 254.5 130.3 252.7C132.1 250.9 132.2 250.9 131.6 252.8C131 254.6 131.7 254.9 139 256C146.6 257.2 167.5 256.8 172.3 255.4C174.1 254.8 176.7 249.7 177.2 245.7C177.4 244.5 177.8 243 178.2 242.5C178.5 241.9 179.1 239.7 179.5 237.5C179.9 235.3 180.6 232.8 181.1 231.9C181.6 231 181.6 227.6 181.1 224.4L180.2 218.5L180.1 224.7C180 231.7 178.2 241.2 177.1 240.6C176.7 240.3 176.3 241.3 176.2 242.7C176.1 244 175.1 246.3 174 247.8C172.5 249.7 172.3 250.5 173.2 251.1C175.4 252.5 172.1 255 168.4 254.7C166.5 254.6 165 254.2 165 253.7C165 253.3 163.8 253.3 162.3 253.6L159.5 254.3L162.5 251.9C166.5 248.8 169.1 245.6 168 245.2C167 244.8 160.8 247.9 160 249.1C159.1 250.4 146.9 251 142.9 249.9C140.1 249.2 139.1 248.4 138.7 246.2C138.4 244.7 137.2 241.5 136.1 239C134.6 235.6 134.2 235.2 134.7 237.5C135 239.1 135.6 240.9 136 241.5C136.4 242 137.1 244 137.5 245.9C138.2 249.2 138.2 249.3 135.4 248.6C132.4 247.8 131 246.4 131 244.2C131 243.5 130.5 243.2 130 243.5C128.3 244.6 127.3 239.9 126.5 226.5C126.1 219.3 125.8 212.6 125.8 211.5C126 199.7 126.5 193 127.1 193C128.5 193 127 190.2 123.9 186.9C122.3 185.2 120.7 184.1 120.2 184.4C118.5 185.4 116 182.5 114 177C112.7 173.5 112.1 172.6 112.3 174.5C112.5 176.1 113 178.4 113.5 179.5C114 181.1 113.8 181 112.1 179C111 177.6 110 176 110 175.3C110 174.7 109.6 173.9 109.1 173.6C106.7 172.1 109.7 177.6 113.1 180.9C117.8 185.4 120.9 188.1 121.3 187.8C121.4 187.6 122.6 188.4 124 189.4L126.5 191.2L124 190.5C122.6 190.1 120.3 189.1 118.9 188.4C117.4 187.7 116 187.3 115.7 187.6C115.4 187.9 113.6 186.5 111.6 184.5C109.6 182.6 108 181.3 107.9 181.7C107.9 182.1 107.4 181.1 106.9 179.5C106.1 176.8 106.6 157.2 107.5 154.3C107.7 153.6 107 152.8 106 152.5C104 151.9 103.7 150.1 105.5 148.8C106.1 148.3 106 148 105.2 148C104.3 148 104.2 147.5 104.9 146.1C105.5 145.1 105.7 144 105.4 143.7C104.4 142.8 106.1 138.9 107.1 139.6C107.7 139.9 107.7 140.7 107.3 141.3C106.8 142 106.7 144.7 107 147.5L107.5 152.5L108.2 145C109.5 132.4 110.6 128.2 113.7 124.8C114.5 123.9 114.9 122.6 114.4 121.9C114 121.2 114.1 120.9 114.8 121.4C115.4 121.7 116.1 121.6 116.5 121C116.8 120.5 116.5 120 115.8 120C114.9 119.9 114.9 119.7 116 119C116.8 118.6 119.7 116.1 122.3 113.6C126.9 109.3 135.7 105.1 143.5 103.5C149.2 102.3 149.6 102 148 101C147 100.3 146.9 100 147.8 100C148.4 100 149 99.5 149 99C149 98.4 148.7 98.1 148.3 98.1C147.8 98.2 147.3 98.1 147 98C144.8 97.2 143 97.4 143 98.6ZM105.5 162.2C105.1 166.8 104.4 170.9 103.9 171.4C103.4 172 103.2 171.5 103.4 170.4C103.6 169.4 104.1 165.2 104.5 161.2C104.9 157.3 105.4 154 105.7 154C105.9 154 105.8 157.7 105.5 162.2ZM123.1 193C125.1 193 125.2 193.3 124.6 197.6C124.3 200.2 124 205.1 124 208.6C124 212.1 123.6 215 123.2 215C122.7 215 122.4 212.6 122.5 209.7C122.6 206.9 122.3 204.2 121.8 203.9C121.3 203.6 120.7 201.4 120.5 199.1C120.3 195.5 119.7 194.5 116.6 192.4C111.9 189.2 112 188.7 117 191.1C119.1 192.1 121.9 193 123.1 193ZM125.3 223.2C126.2 223.8 126.1 224.2 125.1 224.9C124.4 225.4 124 226.2 124.4 226.8C124.7 227.4 124.6 228.1 124.2 228.4C123.7 228.7 123.3 225.9 123.3 222.2C123.3 218.5 123.5 217.1 123.8 219C124 220.9 124.7 222.8 125.3 223.2ZM129.7 246.4C131.3 248.4 133.4 249.4 137.7 250.3C140.9 250.9 143.7 251.8 144 252.1C144.3 252.5 146.4 252.5 148.7 252.1C151.5 251.5 153.1 251.6 153.3 252.4C153.6 253.2 154.1 253.1 155.1 252.2C155.8 251.6 157.4 251 158.7 251C160 251 161 250.6 161 250.1C161 249.6 162.5 248.4 164.3 247.5L167.5 246L164.3 249C162.3 250.8 160 252 158.3 252C156.2 252 155.9 252.3 157 253C157.9 253.6 154.5 253.7 147.5 253.4C140 253.1 135.9 252.5 134.2 251.4C131.7 249.7 128.4 250.2 129.6 252.1C130 252.8 129.7 253.1 129 252.8C128.2 252.6 127.4 251.8 127.2 251C126.9 250.3 127.2 250 127.8 250.4C129.9 251.7 130 249.1 127.9 247.7C126.5 246.7 125.7 244.8 125.4 241.8C125 237.5 125 237.5 126.2 240.6C126.9 242.3 128.5 244.9 129.7 246.4ZM125 248C125.3 248.3 125.6 249.6 125.8 251C126 253.3 125.9 253.3 124.5 251.9C123.6 251.1 122.7 248.6 122.4 246.4C122 242.8 122 242.7 123.2 245C123.9 246.4 124.7 247.7 125 248ZM153.5 255C153.9 255.6 152.1 256 148.8 255.9C144.6 255.8 144 255.6 146 255C149.6 253.8 152.8 253.8 153.5 255Z" fill="#000000" fill-rule="nonzero" opacity="1" stroke="none"/>
<path d="M137.7 107.6C136.1 108.5 135 109.4 135.3 109.7C135.6 109.9 137.5 109.2 139.7 108.1C141.8 107 142.8 106.1 142 106.1C141.2 106.1 139.2 106.8 137.7 107.6Z" fill="#000000" fill-rule="nonzero" opacity="1" stroke="none"/>
<path d="M131.3 113.6C130.7 113.9 128.9 115.8 127.4 117.8L124.7 121.5L128.8 117.5C131.1 115.4 133 113.5 133 113.3C133 113 133 113 131.3 113.6Z" fill="#000000" fill-rule="nonzero" opacity="1" stroke="none"/>
<path d="M121.6 120.5C120.7 121.8 120 123.4 120 123.9C120 124.4 119 125.6 117.8 126.6C116.1 127.8 116 128.1 117.3 127.6C119 127.1 118.9 127.3 117.1 129.9C115.9 131.5 115.1 133.4 115.3 134.2C115.5 134.9 115.5 135.2 115.3 134.7C114.7 133.8 113 134.8 113 136.1C113 136.7 113.5 136.8 114 136.5C115.3 135.7 115.3 138.1 114 141.6C113.4 143.1 112.7 146.8 112.5 149.9L112.1 155.5L113.1 151C116.1 137.3 118.3 130.3 120.4 128C121.6 126.6 123 124.8 123.6 124C124.1 123.1 123.5 123.6 122.3 125C119.5 128.1 119.4 126.7 122 121.7C124.3 117.5 124 116.8 121.6 120.5Z" fill="#000000" fill-rule="nonzero" opacity="1" stroke="none"/>
<path d="M109.6 153.5C109.9 156.2 110.1 158.9 110.2 159.5C110.2 160 109.9 161.4 109.4 162.5C108.7 164.2 108.8 164.3 110.2 163C111.1 162.2 111.6 160.6 111.4 159.5C111.2 158.4 110.6 155.5 110.1 153L109.1 148.5L109.6 153.5Z" fill="#000000" fill-rule="nonzero" opacity="1" stroke="none"/>
<path d="M178 205.4C178 211.7 177.6 217.9 177.1 219.3C176.4 221 176.5 221.7 177.5 221.7C178.5 221.7 178.8 218.5 178.9 207.8C179 200.2 178.8 194 178.5 194C178.2 194 178 199.1 178 205.4Z" fill="#000000" fill-rule="nonzero" opacity="1" stroke="none"/>
<path d="M129.7 218.7C129.2 219.8 129.5 225.1 130.2 227C130.5 227.8 131.5 232.3 132.3 237L133.8 245.5L133.5 238.5C133.3 234.6 132.6 229.5 132 227.1C131.4 224.7 131.1 222.1 131.4 221.3C131.7 220.6 131.5 220 130.9 220C130.3 220 130.2 219.5 130.5 219C130.8 218.4 130.9 218 130.6 218C130.3 218 129.9 218.3 129.7 218.7Z" fill="#000000" fill-rule="nonzero" opacity="1" stroke="none"/>
<path d="M169 219.1C168.9 219.9 168.3 224.9 167.6 230.2C166.9 235.6 166.6 240 167 240C167.7 240 170.2 218.8 169.5 218.2C169.2 217.9 169 218.3 169 219.1Z" fill="#000000" fill-rule="nonzero" opacity="1" stroke="none"/>
</g>
<path d="M148.037 40.6893C142.388 40.6893 136.806 41.0467 132.193 44.7896C129.099 47.3001 128.352 52.1717 127.264 55.7755C124.999 63.2806 121.554 70.4835 121.554 78.4721C121.554 80.3971 121.382 82.2057 122.268 83.9753C124.099 87.6324 128.438 89.0964 132.217 89.8945C138.179 91.1538 144.924 90.8813 151.007 91.0718C155.62 91.2163 160.63 91.7664 165.011 89.9163C167.229 88.98 168.944 87.3049 170.648 85.6584C177.197 79.3279 178.608 73.5107 180.467 64.7087C181.383 60.3737 182.242 54.8474 179.543 50.9181C175.318 44.7682 165.719 43.1381 158.952 41.6233C154.628 40.6554 150.222 39.6888 145.775 39.6888C144.981 39.6888 143.743 39.4432 143.031 39.8356" fill="none" filter="url(#Filter)" stroke="#f1d244" stroke-linecap="round" stroke-linejoin="miter" stroke-width="18.715" vectornator:shadowAngle="1.5708" vectornator:shadowColor="#000000" vectornator:shadowOffset="10" vectornator:shadowOpacity="0.333" vectornator:shadowRadius="12"/>
<path d="M133.739 100.717C130.949 100.717 128.042 100.46 125.305 101.101C115.45 103.408 113.277 114.378 110.517 122.473C105.215 138.023 101.873 155.786 103.896 172.263C104.35 175.964 105.54 180.765 108.054 183.605C108.721 184.358 110.498 184.625 111.374 185.477C112.886 186.947 114.116 189.01 115.553 190.632C117.591 192.932 120.523 194.759 121.522 197.806C123.46 203.718 122.97 210.959 123.305 217.157C123.416 219.198 124.41 221.871 124.41 223.42C124.41 227.159 122.755 232.836 124.091 236.403C124.535 237.588 125.803 238.23 126.537 239.211C127.306 240.24 127.279 242.156 128.145 243.349C130.554 246.666 134.653 247.442 138.429 248.376C138.979 248.512 140.046 248.984 140.654 248.87C141.008 248.803 140.044 248.389 139.683 248.389C139.131 248.389 138.579 248.389 138.027 248.389C137.314 248.389 136.601 248.389 135.889 248.389C134.775 248.389 133.661 248.389 132.547 248.389C129.565 248.389 126.681 247.751 123.68 247.751C123.327 247.751 121.139 247.412 121.554 248.355C121.932 249.212 123.35 250.157 124.039 250.682C129.037 254.485 135.895 255.352 142.016 255.515C145.786 255.615 149.564 255.546 153.335 255.546C154.072 255.546 156.279 255.942 157.003 255.492C158.347 254.656 159.612 252.782 160.85 251.768C164.04 249.156 167.715 248.333 171.13 246.347C172.638 245.47 173.75 242.879 174.892 241.652C176.015 240.447 177.632 239.394 178.473 237.942C179.023 236.993 178.958 234.923 179.034 233.958C179.288 230.768 179.282 227.588 179.282 224.392C179.282 217.22 179.062 210.075 179.062 202.908C179.062 199.504 178.836 196 179.509 192.644C179.685 191.766 182.777 190.342 183.434 189.891C186.634 187.697 189.75 184.894 192.575 182.237C194.669 180.268 194.366 178.323 195.265 175.498C196.323 172.175 197.442 168.876 198.071 165.438C198.998 160.379 200.16 154.633 199.745 149.455C199.411 145.286 197.61 141.375 197.355 137.153C197.183 134.303 197.103 131.368 197.103 128.512C197.103 128.111 197.318 126.614 196.898 126.303C194.219 124.317 191.506 122.812 189.161 120.313C186.731 117.723 184.943 114.718 181.887 112.726C180.499 111.821 178.796 111.647 177.275 111.081C174.952 110.216 172.84 108.855 170.458 108.094C168.64 107.513 166.027 107.388 164.703 106.99C162.266 106.257 158.68 105.54 156.441 104.203C154.891 103.278 154.047 101.558 152.079 101.253C150.23 100.966 147.931 100.996 146.115 101.439C144.665 101.793 143.294 102.665 141.787 102.645C135.669 102.566 129.733 101.088 123.553 101.186" fill="none" filter="url(#Filter_2)" stroke="#f1d244" stroke-linecap="round" stroke-linejoin="miter" stroke-width="18.715" vectornator:shadowAngle="1.5708" vectornator:shadowColor="#000000" vectornator:shadowOffset="10" vectornator:shadowOpacity="0.333" vectornator:shadowRadius="12"/>
</g>
</svg>
