<?xml version="1.0" encoding="utf-8" ?>
<svg xmlns="http://www.w3.org/2000/svg" xmlns:xlink="http://www.w3.org/1999/xlink" width="359" height="354">
	<path fill="#535050" d="M192.372 127.148C192.636 127.123 192.901 127.103 193.166 127.089C207.778 126.314 222.108 131.318 233.061 141.02C243.964 150.858 250.555 164.593 251.409 179.253C251.753 185.403 251.505 191.607 251.548 197.766C251.598 204.986 252.485 213.745 250.968 220.759C250.152 224.53 248.297 228.269 245.696 231.128C241.179 236.093 234.678 238.028 228.172 238.373C228.191 238.898 228.205 239.423 228.214 239.948C228.406 251.474 228.168 263.038 228.197 274.569C228.215 281.867 228.948 292.967 227.581 299.783C226.886 303.248 225.36 306.46 222.858 308.988C216.638 315.274 207.36 314.805 199.187 314.881C194.603 314.866 190.019 314.799 185.436 314.68C179.17 314.457 173.287 313.434 168.825 308.573C166.921 306.498 165.07 303.567 164.439 300.798C163.187 295.3 163.522 289.524 163.563 283.926L163.658 267.769C163.691 258.064 163.299 248.227 163.755 238.545C158.311 238.431 152.487 236.428 148.318 232.915C143.622 228.958 141.054 223.468 140.529 217.4C139.959 210.81 140.331 204.046 140.317 197.431C140.303 190.472 139.976 183.291 140.694 176.372C141.787 165.828 146.34 155.037 153.185 146.943C163.231 135.064 176.96 128.45 192.372 127.148Z"/>
	<path fill="#535050" d="M193.214 61.327C210.184 59.7942 225.174 72.3267 226.673 89.2989C228.172 106.271 215.61 121.237 198.635 122.702C181.707 124.163 166.793 111.643 165.298 94.7191C163.804 77.7948 176.293 62.8554 193.214 61.327Z"/>
</svg>
