<?xml version="1.0" standalone="no"?>
<!DOCTYPE svg PUBLIC "-//W3C//DTD SVG 20010904//EN"
 "http://www.w3.org/TR/2001/REC-SVG-20010904/DTD/svg10.dtd">
<svg version="1.0" xmlns="http://www.w3.org/2000/svg"
 width="300.000000pt" height="300.000000pt" viewBox="0 0 300.000000 300.000000"
 preserveAspectRatio="xMidYMid meet">
<metadata>
Created by potrace 1.10, written by Peter Selinger 2001-2011
</metadata>
<g transform="translate(0.000000,300.000000) scale(0.100000,-0.100000)"
fill="#000000" stroke="none">
<path d="M1364 2594 c-69 -36 -119 -74 -97 -74 7 0 15 4 18 10 3 5 34 26 68
46 52 31 72 37 124 38 80 2 89 11 14 14 -49 2 -67 -3 -127 -34z"/>
<path d="M1413 2585 c-23 -12 -40 -25 -38 -27 2 -2 -6 -10 -18 -17 -20 -13
-21 -13 -8 2 22 27 0 20 -31 -10 -15 -14 -38 -27 -50 -28 -13 -1 -23 -8 -23
-16 0 -8 -3 -16 -6 -19 -17 -13 -69 -114 -70 -133 -2 -81 11 -152 37 -188 35
-52 43 -43 9 10 -15 22 -25 45 -23 52 4 12 58 -89 58 -109 0 -6 15 -22 33 -36
38 -29 92 -52 81 -35 -4 8 1 9 17 4 31 -9 31 -9 52 0 10 4 23 3 28 -2 6 -6 29
-7 62 0 29 5 61 10 72 11 11 1 37 12 58 25 38 24 49 38 21 27 -14 -6 -15 -4
-4 9 9 10 16 12 20 5 8 -12 41 22 63 65 8 17 18 59 22 95 4 36 8 67 10 69 2 1
7 -13 10 -32 12 -61 -19 -144 -74 -198 -25 -25 -57 -49 -69 -53 -20 -7 -22
-26 -2 -26 22 0 121 106 143 153 22 46 24 60 18 125 -4 42 -12 77 -20 81 -7 5
-12 12 -11 17 2 15 -33 84 -42 84 -5 0 -6 5 -2 12 5 7 3 8 -6 3 -10 -6 -12 -4
-7 9 11 28 -56 84 -108 92 -24 3 -51 4 -61 1 -11 -3 -2 -5 19 -6 46 -1 94 -21
125 -51 27 -25 21 -41 -6 -17 -39 36 -222 73 -222 46 0 -4 -13 -9 -30 -11 -38
-6 -38 -2 3 22 44 27 22 24 -30 -5z m22 -45 c-3 -5 -13 -10 -21 -10 -8 0 -28
-7 -44 -15 -17 -9 -30 -12 -30 -8 0 9 68 42 88 42 7 1 10 -3 7 -9z m140 -2
c22 -6 43 -11 48 -10 4 1 7 -3 7 -9 0 -7 -12 -9 -32 -5 -18 3 -59 9 -90 12
-32 4 -55 11 -52 15 7 13 72 11 119 -3z m80 -8 c12 -14 21 -17 25 -9 5 6 19
-4 38 -27 17 -21 29 -41 27 -45 -3 -4 2 -20 10 -35 8 -16 15 -36 14 -44 0 -8
-5 -1 -11 15 -6 17 -19 40 -30 52 -11 12 -17 26 -14 31 3 5 -2 16 -12 23 -15
13 -16 12 -3 -3 24 -31 5 -19 -37 22 -22 22 -36 40 -32 40 4 0 15 -9 25 -20z
m-95 -21 c29 -6 58 -12 66 -13 43 -6 114 -89 114 -133 0 -13 4 -23 9 -23 5 0
12 -7 15 -16 3 -8 2 -12 -4 -9 -6 3 -10 -4 -10 -17 0 -13 -9 -43 -20 -67 -11
-24 -18 -46 -16 -48 3 -3 14 15 25 39 11 23 20 38 21 31 0 -18 -32 -83 -41
-83 -5 0 -13 8 -19 18 -9 14 -10 13 -4 -7 4 -16 3 -21 -5 -17 -6 4 -9 2 -5 -7
6 -17 -75 -89 -107 -94 -92 -16 -128 -14 -178 7 -81 35 -146 133 -134 204 3
18 1 36 -4 39 -6 4 -8 -4 -5 -18 2 -15 0 -25 -7 -25 -17 0 -13 75 6 115 9 19
20 35 25 35 4 0 8 7 8 14 0 19 59 64 88 69 12 2 25 6 28 10 11 11 97 8 154 -4z
m-326 -134 c-19 -46 -9 -104 28 -174 44 -82 59 -100 101 -122 22 -11 37 -23
34 -25 -9 -10 -82 34 -114 68 -19 20 -33 46 -35 66 -2 18 -10 37 -18 42 -7 4
-14 24 -14 43 -1 19 -5 33 -9 30 -4 -2 -5 8 -2 24 5 23 4 25 -5 10 -7 -10 -9
-31 -5 -50 4 -18 4 -29 0 -25 -11 11 -15 88 -4 88 5 0 9 10 10 23 0 21 1 21 9
2 8 -19 9 -19 9 2 1 12 7 24 14 26 6 3 13 6 14 6 1 1 -5 -15 -13 -34z"/>
<path d="M1327 2403 c-35 -55 -47 -80 -47 -95 0 -7 12 10 26 37 15 28 33 58
42 68 8 9 13 20 9 23 -3 3 -16 -11 -30 -33z"/>
<path d="M1610 2144 c-25 -13 -72 -33 -105 -44 -50 -17 -53 -19 -20 -14 47 6
150 50 166 70 15 18 13 17 -41 -12z"/>
<path d="M1575 2029 c-11 -4 -33 -11 -50 -15 l-30 -7 30 -7 30 -8 -28 -1 c-43
-2 -24 -17 24 -20 23 -1 47 -8 53 -15 6 -7 29 -18 52 -24 42 -12 123 -79 143
-120 7 -12 17 -20 23 -16 7 5 8 2 4 -5 -5 -7 -1 -20 8 -29 38 -43 67 -130 69
-211 1 -49 -2 -81 -8 -81 -6 0 -5 -4 1 -8 14 -8 25 -150 13 -158 -4 -2 -10 26
-12 63 l-3 68 -2 -72 c-1 -46 2 -73 8 -73 14 0 4 -63 -16 -107 -11 -23 -19
-31 -32 -27 -13 4 -14 3 -4 -4 19 -13 -45 -42 -92 -42 -20 0 -36 -5 -36 -11 0
-6 7 -9 15 -6 8 4 17 2 20 -3 4 -6 1 -11 -4 -11 -6 -1 -15 -3 -21 -4 -5 -1
-13 -3 -17 -4 -5 -1 -1 -7 8 -14 16 -12 22 -90 6 -80 -5 3 -6 11 -3 19 3 7 1
16 -4 19 -6 4 -10 -7 -10 -24 0 -16 4 -32 9 -36 11 -6 14 -271 5 -322 -4 -19
-11 -30 -17 -26 -6 3 -7 1 -3 -6 4 -6 3 -17 -2 -24 -6 -7 -9 -24 -7 -40 2 -15
0 -25 -3 -23 -4 2 -15 -7 -25 -20 -28 -37 3 -30 33 7 14 17 31 37 38 44 6 8
12 23 12 35 0 12 4 29 10 39 5 10 12 48 16 85 6 59 5 66 -10 60 -19 -7 -22 16
-6 47 8 13 7 19 0 19 -6 0 -8 5 -5 10 3 6 0 10 -7 10 -11 0 -11 2 0 9 9 5 11
17 6 36 -5 18 -2 30 7 36 8 5 10 9 4 9 -11 0 -12 56 -2 67 4 3 7 19 7 35 0 18
5 28 15 28 8 0 15 4 15 8 0 4 10 8 22 9 27 2 94 57 90 74 -2 9 2 8 14 -2 13
-10 16 -10 10 -1 -4 7 0 24 10 40 15 23 18 55 21 210 2 107 -1 181 -6 178 -5
-3 -11 1 -14 8 -3 8 -1 16 5 18 14 5 -14 112 -44 172 -27 52 -97 126 -165 173
-46 31 -63 38 -106 38 -31 0 -52 5 -54 13 -3 6 0 12 7 12 6 0 8 -4 5 -10 -8
-13 1 -13 26 1 11 5 17 15 13 21 -4 7 -9 6 -15 -3 -6 -10 -11 -11 -16 -3 -5 7
-16 8 -28 3z m117 -55 c38 -20 145 -108 168 -138 26 -33 57 -97 74 -150 20
-61 20 -63 1 -63 -8 0 -12 5 -8 10 8 13 -47 144 -73 172 -13 14 -21 25 -19 25
3 0 -3 8 -14 18 -10 9 -38 36 -62 59 -24 23 -55 44 -69 47 -37 6 -60 17 -60
27 0 14 28 11 62 -7z m259 -504 c4 -51 3 -120 -3 -158 -5 -37 -10 -75 -11 -84
-1 -18 -9 -23 -20 -12 -3 4 0 18 7 33 11 22 15 216 6 256 -1 6 -2 23 -1 39 2
56 14 15 22 -74z m-207 -867 c-3 -21 -13 -45 -21 -53 -14 -13 -15 -13 -10 0 3
8 11 32 18 53 7 20 14 37 16 37 2 0 1 -17 -3 -37z"/>
<path d="M1430 2014 c0 -10 -6 -11 -25 -4 -16 6 -25 6 -25 0 0 -6 8 -10 18
-11 20 0 -83 -49 -105 -49 -8 0 -11 -5 -7 -12 4 -7 3 -8 -4 -4 -22 13 -133
-94 -177 -172 -16 -29 -36 -61 -43 -70 -11 -15 -11 -15 -5 3 3 11 9 25 13 30
4 6 15 31 25 57 18 49 116 153 130 140 5 -4 5 -2 2 4 -4 6 17 20 51 33 31 12
66 26 77 31 20 9 20 9 0 9 -38 1 -144 -54 -190 -98 -74 -70 -121 -162 -127
-251 -1 -19 -8 -40 -14 -47 -19 -19 -35 -217 -23 -283 5 -28 7 -22 8 30 2 93
10 182 16 188 10 10 5 -170 -7 -240 -9 -55 -9 -75 1 -90 7 -12 8 -17 2 -13 -6
3 -2 -10 10 -29 12 -20 25 -37 30 -37 5 -1 13 -2 17 -3 5 0 16 -8 25 -18 9 -9
32 -26 51 -37 27 -17 35 -30 41 -64 11 -73 17 -400 7 -393 -6 4 -7 -8 -2 -31
5 -20 7 -41 4 -45 -15 -23 70 -98 126 -112 17 -4 14 0 -10 12 -34 17 -35 17
-17 35 18 18 19 18 13 -1 -6 -18 1 -21 74 -32 76 -12 285 -8 333 6 18 6 44 57
49 97 2 12 6 27 10 32 3 6 9 28 13 50 4 22 11 47 16 56 5 9 5 43 0 75 l-9 59
-1 -62 c-1 -70 -19 -165 -30 -159 -4 3 -8 -7 -9 -21 -1 -13 -11 -36 -22 -51
-15 -19 -17 -27 -8 -33 22 -14 -11 -39 -48 -36 -19 1 -34 5 -34 10 0 4 -12 4
-27 1 l-28 -7 30 24 c40 31 66 63 55 67 -10 4 -72 -27 -80 -39 -9 -13 -131
-19 -171 -8 -28 7 -38 15 -42 37 -3 15 -15 47 -26 72 -15 34 -19 38 -14 15 3
-16 9 -34 13 -40 4 -5 11 -25 15 -44 7 -33 7 -34 -21 -27 -30 8 -44 22 -44 44
0 7 -5 10 -10 7 -17 -11 -27 36 -35 170 -4 72 -7 139 -7 150 2 118 7 185 13
185 14 0 -1 28 -32 61 -16 17 -32 28 -37 25 -17 -10 -42 19 -62 74 -13 35 -19
44 -17 25 2 -16 7 -39 12 -50 5 -16 3 -15 -14 5 -11 14 -21 30 -21 37 0 6 -4
14 -9 17 -24 15 6 -40 40 -73 47 -45 78 -72 82 -69 1 2 13 -6 27 -16 l25 -18
-25 7 c-14 4 -37 14 -51 21 -15 7 -29 11 -32 8 -3 -3 -21 11 -41 31 -20 19
-36 32 -37 28 0 -4 -5 6 -10 22 -8 27 -3 223 6 252 2 7 -5 15 -15 18 -20 6
-23 24 -5 37 6 5 5 8 -3 8 -9 0 -10 5 -3 19 6 10 8 21 5 24 -10 9 7 48 17 41
6 -3 6 -11 2 -17 -5 -7 -6 -34 -3 -62 l5 -50 7 75 c13 126 24 168 55 202 8 9
12 22 7 29 -4 7 -3 10 4 5 6 -3 13 -2 17 4 3 5 0 10 -7 10 -9 1 -9 3 2 10 8 4
37 29 63 54 46 43 134 85 212 101 57 12 61 15 45 25 -10 7 -11 10 -2 10 6 0
12 5 12 10 0 6 -3 9 -7 9 -5 -1 -10 0 -13 1 -22 8 -40 6 -40 -6z m-375 -636
c-4 -46 -11 -87 -16 -92 -5 -6 -7 -1 -5 10 2 10 7 52 11 92 4 39 9 72 12 72 2
0 1 -37 -2 -82z m176 -308 c20 0 21 -3 15 -46 -3 -26 -6 -75 -6 -110 0 -35 -4
-64 -8 -64 -5 0 -8 24 -7 53 1 28 -2 55 -7 58 -5 3 -11 25 -13 48 -2 36 -8 46
-39 67 -47 32 -46 37 4 13 21 -10 49 -19 61 -19z m22 -302 c9 -6 8 -10 -2 -17
-7 -5 -11 -13 -7 -19 3 -6 2 -13 -2 -16 -5 -3 -9 25 -9 62 0 37 2 51 5 32 2
-19 9 -38 15 -42z m44 -232 c16 -20 37 -30 80 -39 32 -6 60 -15 63 -18 3 -4
24 -4 47 0 28 6 44 5 46 -3 3 -8 8 -7 18 2 7 6 23 12 36 12 13 0 23 4 23 9 0
5 15 17 33 26 l32 15 -32 -30 c-20 -18 -43 -30 -60 -30 -21 0 -24 -3 -13 -10
9 -6 -25 -7 -95 -4 -75 3 -116 9 -133 20 -25 17 -58 12 -46 -7 4 -7 1 -10 -6
-7 -8 2 -16 10 -18 18 -3 7 0 10 6 6 21 -13 22 13 1 27 -14 10 -22 29 -25 59
-4 43 -4 43 8 12 7 -17 23 -43 35 -58z m-47 -16 c3 -3 6 -16 8 -30 2 -23 1
-23 -13 -9 -9 8 -18 33 -21 55 -4 36 -4 37 8 14 7 -14 15 -27 18 -30z m285
-70 c4 -6 -14 -10 -47 -9 -42 1 -48 3 -28 9 36 12 68 12 75 0z"/>
<path d="M1377 1924 c-16 -9 -27 -18 -24 -21 3 -2 22 5 44 16 21 11 31 20 23
20 -8 0 -28 -7 -43 -15z"/>
<path d="M1313 1864 c-6 -3 -24 -22 -39 -42 l-27 -37 41 40 c23 21 42 40 42
42 0 3 0 3 -17 -3z"/>
<path d="M1216 1795 c-9 -13 -16 -29 -16 -34 0 -5 -10 -17 -22 -27 -17 -12
-18 -15 -5 -10 17 5 16 3 -2 -23 -12 -16 -20 -35 -18 -43 2 -7 2 -10 0 -5 -6
9 -23 -1 -23 -14 0 -6 5 -7 10 -4 13 8 13 -16 0 -51 -6 -15 -13 -52 -15 -83
l-4 -56 10 45 c30 137 52 207 73 230 12 14 26 32 32 40 5 9 -1 4 -13 -10 -28
-31 -29 -17 -3 33 23 42 20 49 -4 12z"/>
<path d="M1096 1465 c3 -27 5 -54 6 -60 0 -5 -3 -19 -8 -30 -7 -17 -6 -18 8
-5 9 8 14 24 12 35 -2 11 -8 40 -13 65 l-10 45 5 -50z"/>
<path d="M1780 946 c0 -63 -4 -125 -9 -139 -7 -17 -6 -24 4 -24 10 0 13 32 14
139 1 76 -1 138 -4 138 -3 0 -5 -51 -5 -114z"/>
<path d="M1297 813 c-5 -11 -2 -64 5 -83 3 -8 13 -53 21 -100 l15 -85 -3 70
c-2 39 -9 90 -15 114 -6 24 -9 50 -6 58 3 7 1 13 -5 13 -6 0 -7 5 -4 10 3 6 4
10 1 10 -3 0 -7 -3 -9 -7z"/>
<path d="M1690 809 c-1 -8 -7 -58 -14 -111 -7 -54 -10 -98 -6 -98 7 0 32 212
25 218 -3 3 -5 -1 -5 -9z"/>
</g>
</svg>
